<svg xmlns="http://www.w3.org/2000/svg" viewBox="0 0 32 32" id="patent-baddge">
  <path fill="#fdd331" d="M3.78 12.43a2.632 2.632 0 0 0 .15-.35c.44-1.36-.33-3.36.49-4.49C5.26 6.44 7.4 6.57 8.54 5.73c1.13-.82 1.67-2.9 3.04-3.34 1.31-.43 2.96.92 4.42.92s3.11-1.35 4.42-.92c1.37.44 1.91 2.52 3.04 3.34 1.14.84 3.28.71 4.12 1.86.82 1.13.05 3.13.49 4.49a2.641 2.641 0 0 0 .22.49M3.71 19.43a2.641 2.641 0 0 1 .22.49c.44 1.36-.33 3.36.49 4.49.84 1.15 2.98 1.02 4.12 1.86 1.13.82 1.67 2.9 3.04 3.34 1.31.43 2.96-.92 4.42-.92s3.11 1.35 4.42.92c1.37-.44 1.91-2.52 3.04-3.34 1.14-.84 3.28-.71 4.12-1.86.82-1.13.05-3.13.49-4.49a2.632 2.632 0 0 1 .15-.35"></path>
  <path fill="#f59831" d="M24.065 19.54a8.428 8.428 0 0 1-.457.9A8.805 8.805 0 0 1 7.9 19.458M7.935 12.46a8.428 8.428 0 0 1 .457-.9 8.805 8.805 0 0 1 15.707.985"></path>
  <path fill="#e23342" d="M30.275,19.57,1.722,19.43a1,1,0,0,1-.856-1.508l.843-1.431a1,1,0,0,0,.013-.992L.845,13.915a1,1,0,0,1,.88-1.485l28.553.14a1,1,0,0,1,.856,1.508l-.843,1.431a1,1,0,0,0-.013.992l.878,1.585A1,1,0,0,1,30.275,19.57Z"></path>
  <path fill="#fff" d="M18.5,14a1.5,1.5,0,0,0-1.408,1H11.5a.5.5,0,0,0-.5.5v2a.5.5,0,0,0,1,0V16h1v1.5a.5.5,0,0,0,1,0V16h3.092A1.5,1.5,0,1,0,18.5,14Zm0,2a.5.5,0,1,1,.5-.5A.5.5,0,0,1,18.5,16Z"></path>
</svg>
